<?xml version="1.0" encoding="UTF-8" standalone="no"?>
<!-- Created with Inkscape (http://www.inkscape.org/) -->

<svg
   xmlns:dc="http://purl.org/dc/elements/1.1/"
   xmlns:cc="http://creativecommons.org/ns#"
   xmlns:rdf="http://www.w3.org/1999/02/22-rdf-syntax-ns#"
   xmlns:svg="http://www.w3.org/2000/svg"
   xmlns="http://www.w3.org/2000/svg"
   xmlns:sodipodi="http://sodipodi.sourceforge.net/DTD/sodipodi-0.dtd"
   xmlns:inkscape="http://www.inkscape.org/namespaces/inkscape"
   width="185.04297mm"
   height="46.657616mm"
   viewBox="0 0 185.04297 46.657616"
   version="1.1"
   id="svg8"
   inkscape:version="0.92.4 (5da689c313, 2019-01-14)"
   sodipodi:docname="Cybertruck.svg">
  <defs
     id="defs2" />
  <sodipodi:namedview
     id="base"
     pagecolor="#ffffff"
     bordercolor="#666666"
     borderopacity="1.0"
     inkscape:pageopacity="0.0"
     inkscape:pageshadow="2"
     inkscape:zoom="0.98994949"
     inkscape:cx="337.0658"
     inkscape:cy="-3.9266185"
     inkscape:document-units="mm"
     inkscape:current-layer="text817"
     showgrid="false"
     inkscape:window-width="1920"
     inkscape:window-height="1027"
     inkscape:window-x="-8"
     inkscape:window-y="-8"
     inkscape:window-maximized="1" />
  <metadata
     id="metadata5">
    <rdf:RDF>
      <cc:Work
         rdf:about="">
        <dc:format>image/svg+xml</dc:format>
        <dc:type
           rdf:resource="http://purl.org/dc/dcmitype/StillImage" />
        <dc:title></dc:title>
      </cc:Work>
    </rdf:RDF>
  </metadata>
  <g
     inkscape:label="Layer 1"
     inkscape:groupmode="layer"
     id="layer1"
     transform="translate(-9.4021544,-119.40081)">
    <g
       aria-label="Cybertruck"
       style="font-style:normal;font-variant:normal;font-weight:normal;font-stretch:normal;font-size:50.79999924px;line-height:1.25;font-family:'Kill The Noise';-inkscape-font-specification:'Kill The Noise, Normal';font-variant-ligatures:normal;font-variant-caps:normal;font-variant-numeric:normal;font-feature-settings:normal;text-align:center;letter-spacing:0px;word-spacing:0px;writing-mode:lr-tb;text-anchor:middle;fill:#000000;fill-opacity:1;stroke:none;stroke-width:0.26458332"
       id="text817">
      <path
         d="m 20.837115,134.13479 q 4.960938,0 6.077149,4.11758 v 1.0666 q 0,0.34727 -0.372071,0.34727 0,-1.48829 -1.5875,-2.50528 l -0.37207,0.19844 h -0.347266 l -0.719336,-0.5457 h -0.173632 v 0.71933 l 0.347265,0.5209 v 0.19844 l -0.173633,0.34726 -1.240234,-0.17363 H 22.07735 l -4.092774,1.41387 q -2.926953,2.6789 -3.571875,6.07715 0,2.72851 3.571875,4.66328 0.942578,0.5209 2.505274,0.5209 3.795117,0 5.159374,-4.09278 v -0.5457 h 0.372071 v 0.5457 h 0.173633 l 0.173632,-1.26504 v -1.24023 h 0.173633 q 0.322461,0 1.265039,3.91914 0,0.32246 -0.719336,1.43867 l 0.173633,0.34727 q -1.066601,3.74551 -2.505273,3.74551 -1.5875,1.43867 -4.985742,1.43867 h -0.545703 q -6.796485,0 -9.6490238,-7.86309 -0.1736328,-1.21543 -0.1736328,-1.95957 v -1.95957 q 1.1658206,-4.68808 4.1175776,-6.97012 3.819922,-2.50527 7.317383,-2.50527 z"
         style="font-style:normal;font-variant:normal;font-weight:normal;font-stretch:normal;font-size:50.79999924px;font-family:'Kill The Noise';-inkscape-font-specification:'Kill The Noise, Normal';font-variant-ligatures:normal;font-variant-caps:normal;font-variant-numeric:normal;font-feature-settings:normal;text-align:center;writing-mode:lr-tb;text-anchor:middle;fill:#000000;fill-opacity:1;stroke-width:0.26458332"
         id="path819" />
      <path
         d="m 37.580279,153.13518 h -1.438672 q -0.768945,0 -2.009179,0.17363 -0.322461,-0.17363 -0.719336,-0.17363 -0.520899,1.21543 -1.463477,1.63711 H 31.60235 q -0.42168,-1.63711 -1.63711,-1.63711 -0.74414,0 -0.74414,-0.5457 l 0.198437,-0.37207 q -0.37207,-0.59532 -0.37207,-1.0666 0,-0.99219 7.639844,-15.99903 l 0.520898,-0.34726 q 0.37207,0.0496 0.37207,0.34726 -0.37207,0.0744 -0.37207,0.37207 v 0.54571 q 0,0.64492 0.744141,1.43867 -0.198438,0.37207 -0.198438,0.5457 l 0.744141,1.63711 q -0.917774,1.01699 -2.00918,7.09414 -0.446484,0.39688 -0.719336,1.98438 3.075781,-0.4961 3.075781,-2.15801 0.297657,-0.22324 6.548438,-12.89844 l 0.545703,-0.37207 q 0.37207,0.0496 0.37207,0.37207 -0.37207,0.0496 -0.37207,0.34727 v 0.5457 q 0,0.66973 0.719336,1.46348 -0.173633,0.34726 -0.173633,0.5457 l 0.719336,1.63711 q -0.79375,0.81855 -1.637109,5.43222 -0.892969,3.32383 -1.63711,4.53926 0.248047,0 0.917774,0.91778 -0.198438,0 -0.917774,1.46347 v 0.34727 l 0.37207,0.5457 v 0.37207 l -1.463476,1.26504 h -0.07441 q -1.513086,4.16719 -4.440039,7.56543 -1.240234,0.39688 -1.612305,0.39688 -3.621484,-0.19844 -6.126757,-0.19844 H 29.96524 q -0.843359,0 -2.232422,0.19844 -0.198437,-0.19844 -1.637109,-0.19844 l -0.396875,0.19844 -0.42168,-0.19844 -1.016992,0.19844 v -0.19844 q -0.396875,0.19844 -0.620117,0.19844 -1.21543,-0.19844 -1.21543,-0.62012 v -0.19844 q 1.240235,0 1.63711,-1.83555 0.347265,0 1.637109,-1.63711 0.917774,0 6.300391,-1.41386 l 1.835547,-0.19844 1.438671,0.19844 q 1.885157,0 2.306836,-2.25723 z"
         style="font-style:normal;font-variant:normal;font-weight:normal;font-stretch:normal;font-size:50.79999924px;font-family:'Kill The Noise';-inkscape-font-specification:'Kill The Noise, Normal';font-variant-ligatures:normal;font-variant-caps:normal;font-variant-numeric:normal;font-feature-settings:normal;text-align:center;writing-mode:lr-tb;text-anchor:middle;fill:#000000;fill-opacity:1;stroke-width:0.26458332"
         id="path821" />
      <path
         d="m 61.219148,119.40081 q 0,0.17363 0.173633,0.17363 l -0.173633,0.37207 q 0.42168,0.49609 0.74414,2.00918 h 0.173633 q 0.595313,-0.37207 1.091407,-0.37207 v 0.74414 l -0.173633,0.91777 0.347265,0.17364 q -0.768945,3.69589 -4.018359,9.69863 l -0.545703,2.00918 v 0.37207 q 3.671094,1.19062 3.671094,3.64629 v 1.0914 q 0,0.37207 -0.372071,0.37207 0,-1.53789 -1.637109,-2.55488 l -0.37207,0.17363 h -0.372071 l -0.719336,-0.5457 h -0.198437 v 0.74414 l 0.37207,0.5457 v 0.17364 l -0.173633,0.37207 -1.289843,-0.17364 h -0.173633 q -1.612305,0.4961 -2.38125,1.63711 -4.39043,8.63204 -4.39043,8.9545 2.306836,2.38125 4.936133,2.38125 4.737695,0 5.853906,-6.57325 0,-1.41386 -1.289844,-4.21679 l 0.744141,0.5457 v -0.17363 q 0,-0.19844 -1.463476,-1.83555 v -0.17363 h 0.347265 l 3.472656,2.18281 q 0,0.5457 2.033985,4.01836 v 0.19844 q -2.033985,10.41797 -9.89707,10.41797 h -0.892969 q -3.274219,0 -6.39961,-2.38125 -3.001367,6.22597 -3.299023,6.22597 h -0.198437 q 0,-1.0666 -0.545704,-1.66191 v -0.5457 l 0.372071,-0.54571 q -0.322461,-0.49609 -0.545703,-2.38125 1.612304,-2.50527 7.14375,-15.8998 2.356445,-2.85254 4.191992,-10.41797 0.843359,-0.64492 3.299023,-6.59805 1.537891,-2.6789 2.554883,-3.10058 z"
         style="font-style:normal;font-variant:normal;font-weight:normal;font-stretch:normal;font-size:50.79999924px;font-family:'Kill The Noise';-inkscape-font-specification:'Kill The Noise, Normal';font-variant-ligatures:normal;font-variant-caps:normal;font-variant-numeric:normal;font-feature-settings:normal;text-align:center;writing-mode:lr-tb;text-anchor:middle;fill:#000000;fill-opacity:1;stroke-width:0.26458332"
         id="path823" />
      <path
         d="m 76.027545,134.75491 q 3.199805,0.17363 5.357812,0.17363 h 0.520899 q 0.719336,0 1.885156,-0.17363 0.173633,0.17363 1.389062,0.17363 l 0.347266,-0.17363 0.347266,0.17363 0.843359,-0.17363 v 0.17363 q 0.347266,-0.17363 0.520899,-0.17363 1.041796,0.17363 1.041796,0.5209 v 0.17363 q -1.066601,0 -1.389062,1.53789 -0.297656,0 -1.364258,1.38906 -0.79375,0 -5.357812,1.21543 l -1.537891,0.17363 q -0.148828,0 -1.041797,-0.17363 -0.124023,0 -1.041797,0.17363 -2.926953,-0.17363 -2.926953,-1.04179 0.198438,0 0.868164,-1.38906 v -0.34727 l -0.347265,-0.49609 v -0.34727 q 0.694531,-0.47129 0.694531,-0.86816 0.148828,0 1.190625,-0.5209 z m -2.926953,6.3748 0.347265,0.17363 q 0.173633,0 0.173633,-0.17363 l 1.21543,0.17363 h 4.812109 q 1.488281,0 4.663281,0.17364 l 0.173633,0.34726 q -0.272851,0 -2.926953,3.10059 l -0.694531,-0.17363 q -3.96875,1.38906 -6.027539,1.38906 -0.198438,0 -0.520898,-0.17363 -0.942579,0.17363 -1.562696,0.17363 h -1.364258 q -0.272851,0 -0.694531,-0.69453 0.520899,-1.5875 0.520899,-1.88516 -0.396875,0 -0.520899,-0.86816 1.314649,-1.5627 2.406055,-1.5627 z m 9.673828,6.72207 q 3.943945,0 3.943945,0.69453 v 0.17364 h -0.669726 q -0.967383,0 -1.736329,1.38906 -0.719335,0 -1.53789,1.36426 -0.967383,-0.14883 -1.389063,-0.14883 -6.201171,1.71152 -8.805664,1.71152 h -0.694531 l -0.843359,-0.17363 q 0,0.34726 -0.347266,0.34726 h -3.100586 q -1.215429,0 -1.215429,-0.86816 l 0.520898,-0.86816 q -0.173633,0 -0.173633,-0.14883 0.322461,-0.17363 0.520899,-0.17363 0,-0.24805 -0.694532,-1.21543 1.562696,-1.14102 1.562696,-1.38907 1.612304,-0.34726 2.579687,-0.34726 h 3.621485 l 0.868164,-0.17363 v 0.17363 q 0.173632,0 0.173632,-0.17363 5.333008,-0.17364 7.416602,-0.17364 z"
         style="font-style:normal;font-variant:normal;font-weight:normal;font-stretch:normal;font-size:50.79999924px;font-family:'Kill The Noise';-inkscape-font-specification:'Kill The Noise, Normal';font-variant-ligatures:normal;font-variant-caps:normal;font-variant-numeric:normal;font-feature-settings:normal;text-align:center;writing-mode:lr-tb;text-anchor:middle;fill:#000000;fill-opacity:1;stroke-width:0.26458332"
         id="path825" />
      <path
         d="m 95.623247,134.06038 0.347265,0.17363 -0.173633,0.32246 q 1.016993,1.31465 1.016993,1.51309 0.37207,0 0.669726,-0.14883 3.100582,0.14883 5.233792,0.14883 h 0.49609 q 0.69453,0 1.86035,-0.14883 0.17364,0.14883 1.33946,0.14883 l 0.34726,-0.14883 0.32246,0.14883 0.84336,-0.14883 v 0.14883 q 0.32246,-0.14883 0.5209,-0.14883 0.99219,0.14883 0.99219,0.49609 v 0.17363 q -1.01699,0 -1.33946,1.51309 -0.29765,0 -1.33945,1.33945 -0.76894,0 -5.23379,1.19063 l -1.51308,0.17363 q -0.124027,0 -1.016996,-0.17363 -1.488281,0.17363 -1.835547,0.32246 l 0.148828,0.34726 q -2.852539,5.48184 -2.852539,6.05235 -4.836914,9.27695 -5.55625,9.94668 l -0.347265,-0.17363 0.173633,-0.32247 v -0.52089 q -0.84336,-0.91778 -0.84336,-0.99219 0.173633,-0.34727 0.173633,-0.5209 -0.198438,0 -0.843359,-1.16582 0.570507,-0.44648 1.339453,-5.06016 0.570508,-1.71152 1.513086,-2.53007 l -0.148829,-0.34727 q 1.091407,-2.82773 2.00918,-3.6959 l -0.173633,-0.32246 q 1.934766,-3.77031 3.547071,-7.4166 z"
         style="font-style:normal;font-variant:normal;font-weight:normal;font-stretch:normal;font-size:50.79999924px;font-family:'Kill The Noise';-inkscape-font-specification:'Kill The Noise, Normal';font-variant-ligatures:normal;font-variant-caps:normal;font-variant-numeric:normal;font-feature-settings:normal;text-align:center;writing-mode:lr-tb;text-anchor:middle;fill:#000000;fill-opacity:1;stroke-width:0.26458332"
         id="path827" />
      <path
         d="m 130.89552,130.86057 0.19843,0.37207 q 0,0.22324 -1.48828,0.74414 0,0.64492 -2.20761,2.95176 h -1.11622 q -4.91132,0.96738 -5.35781,1.48828 0,1.0418 -7.4166,13.86582 -2.90215,5.92832 -5.15937,8.88008 l -0.37207,0.17363 h -0.19844 l -0.37207,-0.17363 0.19844,-0.37207 v -0.74414 q 0,-0.17363 -0.37208,-1.48828 0.0496,-0.37207 0.37208,-0.37207 l -0.37208,-2.77813 q 1.41387,-1.48828 4.61368,-10.51719 l 3.15019,-5.75468 h -2.03398 q -2.57969,-0.12403 -2.57969,-0.91778 l 1.09141,-1.46347 q 0,-0.17364 -0.34727,-1.48828 1.38906,-1.48828 4.41524,-1.48828 l 7.04453,-0.54571 v 0.17363 l 0.37207,-0.17363 h 1.46347 q 2.25723,0 6.47403,-0.37207 z"
         style="font-style:normal;font-variant:normal;font-weight:normal;font-stretch:normal;font-size:50.79999924px;font-family:'Kill The Noise';-inkscape-font-specification:'Kill The Noise, Normal';font-variant-ligatures:normal;font-variant-caps:normal;font-variant-numeric:normal;font-feature-settings:normal;text-align:center;writing-mode:lr-tb;text-anchor:middle;fill:#000000;fill-opacity:1;stroke-width:0.26458332"
         id="path829" />
      <path
         d="m 130.15138,134.06038 0.34726,0.17363 -0.17363,0.32246 q 1.01699,1.31465 1.01699,1.51309 0.37207,0 0.66973,-0.14883 3.10058,0.14883 5.23379,0.14883 h 0.49609 q 0.69453,0 1.86035,-0.14883 0.17363,0.14883 1.33946,0.14883 l 0.34726,-0.14883 0.32246,0.14883 0.84336,-0.14883 v 0.14883 q 0.32246,-0.14883 0.5209,-0.14883 0.99219,0.14883 0.99219,0.49609 v 0.17363 q -1.017,0 -1.33946,1.51309 -0.29765,0 -1.33945,1.33945 -0.76894,0 -5.23379,1.19063 l -1.51308,0.17363 q -0.12403,0 -1.017,-0.17363 -1.48828,0.17363 -1.83554,0.32246 l 0.14882,0.34726 q -2.85253,5.48184 -2.85253,6.05235 -4.83692,9.27695 -5.55625,9.94668 l -0.34727,-0.17363 0.17363,-0.32247 v -0.52089 q -0.84336,-0.91778 -0.84336,-0.99219 0.17364,-0.34727 0.17364,-0.5209 -0.19844,0 -0.84336,-1.16582 0.5705,-0.44648 1.33945,-5.06016 0.57051,-1.71152 1.51309,-2.53007 l -0.14883,-0.34727 q 1.0914,-2.82773 2.00918,-3.6959 l -0.17364,-0.32246 q 1.93477,-3.77031 3.54708,-7.4166 z"
         style="font-style:normal;font-variant:normal;font-weight:normal;font-stretch:normal;font-size:50.79999924px;font-family:'Kill The Noise';-inkscape-font-specification:'Kill The Noise, Normal';font-variant-ligatures:normal;font-variant-caps:normal;font-variant-numeric:normal;font-feature-settings:normal;text-align:center;writing-mode:lr-tb;text-anchor:middle;fill:#000000;fill-opacity:1;stroke-width:0.26458332"
         id="path831" />
      <path
         d="m 154.78242,133.34104 q 0.37207,0.0496 0.37207,0.37207 -0.37207,0.0496 -0.37207,0.34727 v 0.5457 q 0,0.66973 0.71934,1.46348 -0.17364,0.34726 -0.17364,0.5457 l 0.71934,1.63711 q -0.79375,0.81855 -1.63711,5.43222 -0.89297,3.32383 -1.63711,4.53926 0.24805,0 0.91778,0.91778 -0.19844,0 -0.91778,1.46347 v 0.34727 l 0.37207,0.5457 v 0.37207 l -1.46347,1.26504 q -0.17364,0 -0.5209,0.17363 -3.37344,-0.17363 -5.63067,-0.17363 h -0.5457 q -0.76895,0 -2.00918,0.17363 -0.32246,-0.17363 -0.71934,-0.17363 -0.52089,1.21543 -1.46347,1.63711 h -0.34727 q -0.42168,-1.63711 -1.63711,-1.63711 -0.74414,0 -0.74414,-0.5457 l 0.19844,-0.37207 q -0.37207,-0.59532 -0.37207,-1.0666 0,-0.99219 7.63984,-15.99903 l 0.5209,-0.34726 q 0.37207,0.0496 0.37207,0.34726 -0.37207,0.0744 -0.37207,0.37207 v 0.54571 q 0,0.64492 0.74414,1.43867 -0.19844,0.37207 -0.19844,0.5457 l 0.74415,1.63711 q -0.91778,1.01699 -2.00918,7.09414 -0.44649,0.39688 -0.71934,1.98438 3.07578,-0.4961 3.07578,-2.15801 0.29766,-0.22324 6.54844,-12.89844 z"
         style="font-style:normal;font-variant:normal;font-weight:normal;font-stretch:normal;font-size:50.79999924px;font-family:'Kill The Noise';-inkscape-font-specification:'Kill The Noise, Normal';font-variant-ligatures:normal;font-variant-caps:normal;font-variant-numeric:normal;font-feature-settings:normal;text-align:center;writing-mode:lr-tb;text-anchor:middle;fill:#000000;fill-opacity:1;stroke-width:0.26458332"
         id="path833" />
      <path
         d="m 166.98633,134.13479 q 4.96094,0 6.07715,4.11758 v 1.0666 q 0,0.34727 -0.37207,0.34727 0,-1.48829 -1.5875,-2.50528 l -0.37207,0.19844 h -0.34727 l -0.71933,-0.5457 h -0.17364 v 0.71933 l 0.34727,0.5209 v 0.19844 l -0.17363,0.34726 -1.24024,-0.17363 h -0.19843 l -4.09278,1.41387 q -2.92695,2.6789 -3.57187,6.07715 0,2.72851 3.57187,4.66328 0.94258,0.5209 2.50528,0.5209 3.79511,0 5.15937,-4.09278 v -0.5457 h 0.37207 v 0.5457 h 0.17363 l 0.17364,-1.26504 v -1.24023 h 0.17363 q 0.32246,0 1.26504,3.91914 0,0.32246 -0.71934,1.43867 l 0.17363,0.34727 q -1.0666,3.74551 -2.50527,3.74551 -1.5875,1.43867 -4.98574,1.43867 h -0.5457 q -6.79649,0 -9.64903,-7.86309 -0.17363,-1.21543 -0.17363,-1.95957 v -1.95957 q 1.16582,-4.68808 4.11758,-6.97012 3.81992,-2.50527 7.31738,-2.50527 z"
         style="font-style:normal;font-variant:normal;font-weight:normal;font-stretch:normal;font-size:50.79999924px;font-family:'Kill The Noise';-inkscape-font-specification:'Kill The Noise, Normal';font-variant-ligatures:normal;font-variant-caps:normal;font-variant-numeric:normal;font-feature-settings:normal;text-align:center;writing-mode:lr-tb;text-anchor:middle;fill:#000000;fill-opacity:1;stroke-width:0.26458332"
         id="path835" />
      <path
         d="m 191.07169,121.08752 h 0.37207 q 0,0.4961 1.11621,1.31465 v 0.37207 h 0.19844 q 0.62011,0 1.31465,-0.5457 0.37207,0.0496 0.37207,0.37207 -0.37207,1.53789 -0.37207,2.05879 h 0.19843 q 0,2.55488 -6.77168,13.17129 v 0.19844 q 4.61368,-2.82774 6.00274,-2.82774 0.37207,0.19844 0.57051,0.19844 v 0.37207 h -0.37207 l 0.17363,0.37207 q -0.4961,1.31465 -0.74414,1.31465 0.19843,0.74414 1.14101,0.74414 v 0.57051 q -0.79375,0.76894 -0.94258,1.51308 -3.77031,3.22461 -6.59804,4.31602 1.31465,2.23242 3.96875,13.94023 v 0.17364 l -0.39688,0.19843 h -0.17363 q -0.37207,-2.62929 -2.25723,-2.62929 0,-0.94258 -2.08359,-2.0836 -0.49609,-2.97656 -3.37344,-7.51582 h -0.19843 q -9.97149,18.38028 -11.0877,19.37246 h -0.19844 v -0.19843 q 0,-0.32247 0.37207,-2.05879 -0.37207,-1.19063 -0.37207,-1.51309 l 0.57051,-1.11621 q 0,-0.19844 -0.19844,-0.57051 0,-3.1998 1.68672,-4.88652 5.95313,-14.43633 11.1125,-22.2002 0.59531,-1.56269 6.97012,-12.42715 z"
         style="font-style:normal;font-variant:normal;font-weight:normal;font-stretch:normal;font-size:50.79999924px;font-family:'Kill The Noise';-inkscape-font-specification:'Kill The Noise, Normal';font-variant-ligatures:normal;font-variant-caps:normal;font-variant-numeric:normal;font-feature-settings:normal;text-align:center;writing-mode:lr-tb;text-anchor:middle;fill:#000000;fill-opacity:1;stroke-width:0.26458332"
         id="path837" />
    </g>
  </g>
</svg>
