<?xml version="1.0" encoding="UTF-8" standalone="no"?>
<svg
   xmlns:dc="http://purl.org/dc/elements/1.1/"
   xmlns:cc="http://creativecommons.org/ns#"
   xmlns:rdf="http://www.w3.org/1999/02/22-rdf-syntax-ns#"
   xmlns:svg="http://www.w3.org/2000/svg"
   xmlns="http://www.w3.org/2000/svg"
   id="svg8"
   version="1.1"
   viewBox="0 0 164.35585 50.626366"
   height="50.626366mm"
   width="164.35585mm">
  <defs
     id="defs2" />
  <metadata
     id="metadata5">
    <rdf:RDF>
      <cc:Work
         rdf:about="">
        <dc:format>image/svg+xml</dc:format>
        <dc:type
           rdf:resource="http://purl.org/dc/dcmitype/StillImage" />
        <dc:title></dc:title>
      </cc:Work>
    </rdf:RDF>
  </metadata>
  <g
     transform="translate(-14.635943,-120.16975)"
     id="layer1">
    <g
       id="text817"
       style="font-style:normal;font-variant:normal;font-weight:normal;font-stretch:normal;font-size:50.79999924px;line-height:1.25;font-family:'Kill The Noise';-inkscape-font-specification:'Kill The Noise, Normal';font-variant-ligatures:normal;font-variant-caps:normal;font-variant-numeric:normal;font-feature-settings:normal;text-align:center;letter-spacing:0px;word-spacing:0px;writing-mode:lr-tb;text-anchor:middle;fill:#ffffff;fill-opacity:1;stroke:none;stroke-width:0.26458332"
       aria-label="Simulator">
      <path
         id="path840"
         style="font-style:normal;font-variant:normal;font-weight:normal;font-stretch:normal;font-size:50.79999924px;font-family:'Kill The Noise';-inkscape-font-specification:'Kill The Noise, Normal';font-variant-ligatures:normal;font-variant-caps:normal;font-variant-numeric:normal;font-feature-settings:normal;text-align:center;writing-mode:lr-tb;text-anchor:middle;fill:#ffffff;fill-opacity:1;stroke-width:0.26458332"
         d="m 42.069927,131.15823 0.173633,0.34726 q -0.248047,0 -0.892969,0.89297 0.347266,0.0496 0.347266,0.34727 -0.124023,0 -1.041797,1.0666 l 0.173633,0.34727 v 0.17363 l -1.066602,1.24023 0.520899,0.37207 q 0.917773,-0.5457 1.785937,-0.5457 v 0.17363 q 0,0.47129 -2.306836,2.48047 l 0.173633,0.34727 q -3.54707,3.64629 -4.415234,4.7873 0.520898,0 0.520898,0.17363 1.984375,-0.52089 3.894336,-0.52089 h 1.413867 q 1.959571,0 2.480469,2.82773 -1.116211,2.97656 -7.962304,7.44141 -3.026172,1.95957 -15.577344,14.13867 -4.241601,3.1998 -5.481836,3.54707 l -0.173633,-0.34727 q 5.481836,-3.54707 5.481836,-6.02754 2.083594,-1.71152 2.480469,-3.54707 0.545703,-0.29765 1.240234,-2.1084 1.885157,-1.43867 8.483203,-8.13593 l 3.026172,-2.13321 v -0.34726 l -0.37207,0.17363 H 33.93399 q -3.274219,0.71934 -6.920508,1.24024 -2.207617,0 -2.827734,-2.65411 0,-0.47128 -0.347266,-1.0666 0.446485,-1.5875 5.134571,-4.2416 11.162109,-9.92187 13.096874,-10.44277 z" />
      <path
         id="path842"
         style="font-style:normal;font-variant:normal;font-weight:normal;font-stretch:normal;font-size:50.79999924px;font-family:'Kill The Noise';-inkscape-font-specification:'Kill The Noise, Normal';font-variant-ligatures:normal;font-variant-caps:normal;font-variant-numeric:normal;font-feature-settings:normal;text-align:center;writing-mode:lr-tb;text-anchor:middle;fill:#ffffff;fill-opacity:1;stroke-width:0.26458332"
         d="m 53.058404,129.99241 q 0,0.86816 1.95957,3.15019 l -0.198437,0.96739 v 0.19843 q 0,0.59532 0.198437,0.59532 0,4.93613 -2.75332,6.67246 -0.892969,-0.84336 -3.150195,-2.35645 0,-0.99219 -0.372071,-0.99219 l 3.919141,-8.23515 z m -4.712891,10.79004 q 0.297657,0 1.959571,1.56269 h 0.967383 q 0,0.47129 0.595312,1.5875 -0.520898,1.76113 -5.283398,10.19473 0,0.22324 -1.190625,2.55488 h -0.595313 v -0.59531 q 0,-0.42168 -1.562695,-3.52227 0.595312,-1.38906 1.761133,-6.8709 2.306836,-4.11757 3.348632,-4.91132 z" />
      <path
         id="path844"
         style="font-style:normal;font-variant:normal;font-weight:normal;font-stretch:normal;font-size:50.79999924px;font-family:'Kill The Noise';-inkscape-font-specification:'Kill The Noise, Normal';font-variant-ligatures:normal;font-variant-caps:normal;font-variant-numeric:normal;font-feature-settings:normal;text-align:center;writing-mode:lr-tb;text-anchor:middle;fill:#ffffff;fill-opacity:1;stroke-width:0.26458332"
         d="m 72.827741,131.95198 h 0.37207 q 0.471289,1.43867 1.091406,1.83554 l 0.917773,-0.17363 q 0.570508,1.71153 0.570508,2.00918 0,0.99219 -7.714257,16.17266 l -0.570508,0.34726 q -0.347266,0 -0.347266,-0.34726 0.347266,0 0.347266,-0.37207 v -0.54571 q 0,-0.66972 -0.719336,-1.48828 0.173633,-0.34726 0.173633,-0.5457 l -0.719336,-1.66191 q 0.917773,-1.017 2.009179,-7.14375 3.547071,-8.08633 4.588868,-8.08633 z m -6.970118,0.74414 h 0.372071 q 0.446484,1.43867 1.091406,1.83555 l 0.917773,-0.19844 q 0.545704,1.73633 0.545704,2.03398 0,0.99219 -7.714258,16.14785 l -0.545703,0.37207 q -0.372071,0 -0.372071,-0.37207 0.372071,0 0.372071,-0.37207 v -0.5457 q 0,-0.66973 -0.719336,-1.46348 0.173633,-0.34726 0.173633,-0.5457 l -0.744141,-1.66191 q 0.917773,-1.017 2.033984,-7.16856 3.522266,-8.06152 4.588867,-8.06152 z m -6.970117,0.91777 h 0.347266 q 0.471289,1.43867 1.116211,1.83555 l 0.917773,-0.19844 q 0.545703,1.73633 0.545703,2.03399 0,0.99218 -7.714257,16.14785 l -0.545703,0.37207 q -0.372071,0 -0.372071,-0.37207 0.372071,0 0.372071,-0.37207 v -0.54571 q 0,-0.66972 -0.744141,-1.46347 0.198438,-0.34727 0.198438,-0.54571 l -0.744141,-1.66191 q 0.917773,-1.01699 2.00918,-7.16855 3.54707,-8.06153 4.613671,-8.06153 z" />
      <path
         id="path846"
         style="font-style:normal;font-variant:normal;font-weight:normal;font-stretch:normal;font-size:50.79999924px;font-family:'Kill The Noise';-inkscape-font-specification:'Kill The Noise, Normal';font-variant-ligatures:normal;font-variant-caps:normal;font-variant-numeric:normal;font-feature-settings:normal;text-align:center;writing-mode:lr-tb;text-anchor:middle;fill:#ffffff;fill-opacity:1;stroke-width:0.26458332"
         d="m 88.405084,133.34104 q 0.37207,0.0496 0.37207,0.37207 -0.37207,0.0496 -0.37207,0.34727 v 0.5457 q 0,0.66973 0.719335,1.46348 -0.173632,0.34726 -0.173632,0.5457 l 0.719336,1.63711 q -0.79375,0.81855 -1.63711,5.43222 -0.892968,3.32383 -1.637109,4.53926 0.248047,0 0.917773,0.91778 -0.198437,0 -0.917773,1.46347 v 0.34727 l 0.37207,0.5457 v 0.37207 l -1.463476,1.26504 q -0.173633,0 -0.520899,0.17363 -3.373437,-0.17363 -5.630664,-0.17363 h -0.545703 q -0.768945,0 -2.00918,0.17363 -0.32246,-0.17363 -0.719335,-0.17363 -0.520899,1.21543 -1.463477,1.63711 h -0.347266 q -0.421679,-1.63711 -1.637109,-1.63711 -0.744141,0 -0.744141,-0.5457 l 0.198438,-0.37207 q -0.37207,-0.59532 -0.37207,-1.0666 0,-0.99219 7.639843,-15.99903 l 0.520899,-0.34726 q 0.37207,0.0496 0.37207,0.34726 -0.37207,0.0744 -0.37207,0.37207 v 0.54571 q 0,0.64492 0.74414,1.43867 -0.198437,0.37207 -0.198437,0.5457 l 0.74414,1.63711 q -0.917773,1.01699 -2.009179,7.09414 -0.446485,0.39688 -0.719336,1.98438 3.075781,-0.4961 3.075781,-2.15801 0.297656,-0.22324 6.548437,-12.89844 z" />
      <path
         id="path848"
         style="font-style:normal;font-variant:normal;font-weight:normal;font-stretch:normal;font-size:50.79999924px;font-family:'Kill The Noise';-inkscape-font-specification:'Kill The Noise, Normal';font-variant-ligatures:normal;font-variant-caps:normal;font-variant-numeric:normal;font-feature-settings:normal;text-align:center;writing-mode:lr-tb;text-anchor:middle;fill:#ffffff;fill-opacity:1;stroke-width:0.26458332"
         d="m 103.80879,120.16975 q 0,0.19844 0.19844,0.19844 l -0.19844,0.39687 q 0.44649,0.54571 0.79375,2.15801 h 0.19844 q 0.64492,-0.39687 1.16582,-0.39687 v 0.79375 l -0.17363,0.99218 0.37207,0.19844 q -0.84336,3.96875 -4.31602,10.41797 -0.81855,4.06797 -4.737694,9.05371 -10.492383,20.24063 -10.814844,20.48867 h -0.198437 q 0,-1.14101 -0.595313,-1.76113 v -0.59531 l 0.396875,-0.59531 q -0.347265,-0.54571 -0.595312,-2.55489 1.711523,-2.70371 7.689453,-17.14004 2.554883,-3.07578 4.514453,-11.21172 0.892969,-0.69453 3.547069,-7.09414 1.66192,-2.90214 2.75332,-3.34863 z" />
      <path
         id="path850"
         style="font-style:normal;font-variant:normal;font-weight:normal;font-stretch:normal;font-size:50.79999924px;font-family:'Kill The Noise';-inkscape-font-specification:'Kill The Noise, Normal';font-variant-ligatures:normal;font-variant-caps:normal;font-variant-numeric:normal;font-feature-settings:normal;text-align:center;writing-mode:lr-tb;text-anchor:middle;fill:#ffffff;fill-opacity:1;stroke-width:0.26458332"
         d="m 107.90157,156.08694 q -6.02754,-0.66973 -8.731252,-8.06152 -0.173633,-1.26504 -0.173633,-2.03399 2.678905,-11.85664 11.856645,-11.85664 4.51445,0 5.95312,3.32383 0.39688,-0.94258 0.49609,-1.78594 1.66192,-2.90215 2.75332,-3.34863 0,0.19844 0.19844,0.19844 l -0.19844,0.39687 q 0.44649,0.5457 0.79375,2.15801 h 0.19844 q 0.64492,-0.39688 1.16582,-0.39688 v 0.79375 l -0.17363,0.99219 0.37207,0.19844 q 0.0992,1.53789 -3.81992,6.52363 -9.10332,17.28887 -9.42578,17.53692 h -0.19844 q 0,-1.14102 -0.59531,-1.76114 v -0.59531 l 0.39687,-0.59531 q -0.34726,-0.54571 -1.98437,0.39687 0.42168,-0.66972 1.11621,-2.08359 z m 8.58242,-17.9834 q -0.5209,-0.27285 -1.38906,-0.81855 l -0.37207,0.17363 h -0.37207 l -0.71934,-0.5457 h -0.19844 v 0.74414 l 0.37207,0.5457 v 0.19844 l -0.17363,0.37207 -1.31465,-0.19844 h -0.17363 l -4.26641,1.48828 q -3.02617,2.75332 -3.69589,6.30039 0,2.80293 3.69589,4.81211 0.89297,0.47129 2.05879,0.5457 1.83555,-4.14238 4.53926,-10.69082 1.28984,-1.56269 2.00918,-2.92695 z" />
      <path
         id="path852"
         style="font-style:normal;font-variant:normal;font-weight:normal;font-stretch:normal;font-size:50.79999924px;font-family:'Kill The Noise';-inkscape-font-specification:'Kill The Noise, Normal';font-variant-ligatures:normal;font-variant-caps:normal;font-variant-numeric:normal;font-feature-settings:normal;text-align:center;writing-mode:lr-tb;text-anchor:middle;fill:#ffffff;fill-opacity:1;stroke-width:0.26458332"
         d="m 144.29004,130.86057 0.19844,0.37207 q 0,0.22324 -1.48828,0.74414 0,0.64492 -2.20762,2.95176 h -1.11621 q -4.91133,0.96738 -5.35781,1.48828 0,1.0418 -7.4166,13.86582 -2.90215,5.92832 -5.15938,8.88008 l -0.37207,0.17363 h -0.19843 l -0.37207,-0.17363 0.19843,-0.37207 v -0.74414 q 0,-0.17363 -0.37207,-1.48828 0.0496,-0.37207 0.37207,-0.37207 l -0.37207,-2.77813 q 1.41387,-1.48828 4.61367,-10.51719 l 3.1502,-5.75468 h -2.03398 q -2.57969,-0.12403 -2.57969,-0.91778 l 1.0914,-1.46347 q 0,-0.17364 -0.34726,-1.48828 1.38906,-1.48828 4.41523,-1.48828 l 7.04453,-0.54571 v 0.17363 l 0.37207,-0.17363 h 1.46348 q 2.25723,0 6.47402,-0.37207 z" />
      <path
         id="path854"
         style="font-style:normal;font-variant:normal;font-weight:normal;font-stretch:normal;font-size:50.79999924px;font-family:'Kill The Noise';-inkscape-font-specification:'Kill The Noise, Normal';font-variant-ligatures:normal;font-variant-caps:normal;font-variant-numeric:normal;font-feature-settings:normal;text-align:center;writing-mode:lr-tb;text-anchor:middle;fill:#ffffff;fill-opacity:1;stroke-width:0.26458332"
         d="m 147.7627,133.6387 q 5.10976,0 6.27558,4.2664 v 1.09141 q 0,0.37207 -0.37207,0.37207 0,-1.53789 -1.66191,-2.57969 l -0.37207,0.17363 h -0.37207 l -0.71934,-0.5457 h -0.19843 v 0.74414 l 0.37207,0.54571 v 0.19843 l -0.17364,0.37207 -1.31465,-0.19843 h -0.17363 l -4.2664,1.48828 q -3.02618,2.75332 -3.6959,6.30039 0,2.80293 3.6959,4.81211 1.04179,0.5457 2.40605,0.5457 4.81211,0 5.92832,-6.67246 0,-1.41387 -1.28984,-4.2416 l 0.74414,0.5457 v -0.17363 q 0,-0.19844 -1.48828,-1.86035 v -0.19844 h 0.37207 l 3.52226,2.23242 q 0,0.5457 2.03399,4.06797 v 0.19844 q -2.05879,10.54199 -9.99629,10.54199 h -0.94258 q -7.01973,0 -9.99629,-8.13594 -0.17363,-1.26504 -0.17363,-2.03398 2.6789,-11.85664 11.85664,-11.85664 z" />
      <path
         id="path856"
         style="font-style:normal;font-variant:normal;font-weight:normal;font-stretch:normal;font-size:50.79999924px;font-family:'Kill The Noise';-inkscape-font-specification:'Kill The Noise, Normal';font-variant-ligatures:normal;font-variant-caps:normal;font-variant-numeric:normal;font-feature-settings:normal;text-align:center;writing-mode:lr-tb;text-anchor:middle;fill:#ffffff;fill-opacity:1;stroke-width:0.26458332"
         d="m 165.17559,134.06038 0.34726,0.17363 -0.17363,0.32246 q 1.01699,1.31465 1.01699,1.51309 0.37207,0 0.66973,-0.14883 3.10059,0.14883 5.23379,0.14883 h 0.49609 q 0.69453,0 1.86035,-0.14883 0.17364,0.14883 1.33946,0.14883 l 0.34726,-0.14883 0.32246,0.14883 0.84336,-0.14883 v 0.14883 q 0.32246,-0.14883 0.5209,-0.14883 0.99219,0.14883 0.99219,0.49609 v 0.17363 q -1.01699,0 -1.33945,1.51309 -0.29766,0 -1.33946,1.33945 -0.76894,0 -5.23379,1.19063 l -1.51308,0.17363 q -0.12403,0 -1.01699,-0.17363 -1.48829,0.17363 -1.83555,0.32246 l 0.14883,0.34726 q -2.85254,5.48184 -2.85254,6.05235 -4.83692,9.27695 -5.55625,9.94668 l -0.34727,-0.17363 0.17364,-0.32247 v -0.52089 q -0.84336,-0.91778 -0.84336,-0.99219 0.17363,-0.34727 0.17363,-0.5209 -0.19844,0 -0.84336,-1.16582 0.57051,-0.44648 1.33945,-5.06016 0.57051,-1.71152 1.51309,-2.53007 l -0.14883,-0.34727 q 1.09141,-2.82773 2.00918,-3.6959 l -0.17363,-0.32246 q 1.93476,-3.77031 3.54707,-7.4166 z" />
    </g>
  </g>
</svg>
